<?xml version="1.0" encoding="UTF-8" standalone="no"?>
<svg
   height="16"
   viewBox="0 0 16 16"
   width="16"
   version="1.1"
   id="svg184"
   sodipodi:docname="Auto-Bus-icon.svg"
   xml:space="preserve"
   inkscape:version="1.2.2 (732a01da63, 2022-12-09)"
   xmlns:inkscape="http://www.inkscape.org/namespaces/inkscape"
   xmlns:sodipodi="http://sodipodi.sourceforge.net/DTD/sodipodi-0.dtd"
   xmlns="http://www.w3.org/2000/svg"
   xmlns:svg="http://www.w3.org/2000/svg"><defs
     id="defs188" /><sodipodi:namedview
     id="namedview186"
     pagecolor="#505050"
     bordercolor="#eeeeee"
     borderopacity="1"
     inkscape:showpageshadow="0"
     inkscape:pageopacity="0"
     inkscape:pagecheckerboard="0"
     inkscape:deskcolor="#505050"
     showgrid="false"
     inkscape:zoom="17.125242"
     inkscape:cx="-1.6934067"
     inkscape:cy="6.4524634"
     inkscape:window-width="1920"
     inkscape:window-height="991"
     inkscape:window-x="-9"
     inkscape:window-y="-9"
     inkscape:window-maximized="1"
     inkscape:current-layer="svg184" /><path
     d="M 15.833548,13.216774 V 3.2167742 H 13.833547 9.8335475 V 5.2167741 H 13.833547 V 11.216774 H 9.8335475 v 2 h 3.9999995 z"
     fill="#ff5f5f"
     id="path5254"
     sodipodi:nodetypes="ccccccccccc"
     style="fill:#8eef97;fill-opacity:1" /><path
     d="m 0.1858061,3.175484 v 10 h 2.000001 4.0000004 v -2 H 2.1858071 V 5.1754844 H 6.1858075 V 3.175484 H 2.1858071 Z"
     fill="#ff5f5f"
     id="path5254-3"
     sodipodi:nodetypes="ccccccccccc"
     style="fill:#ff5f5f;fill-opacity:1" /><path
     sodipodi:type="star"
     style="fill:#efea8e;fill-opacity:1;stroke-width:0.3;stroke-linecap:round;stroke-linejoin:round;stroke-miterlimit:3.4;paint-order:stroke fill markers"
     id="path6968"
     inkscape:flatsided="false"
     sodipodi:sides="3"
     sodipodi:cx="-8.0929031"
     sodipodi:cy="7.556129"
     sodipodi:r1="2.613061"
     sodipodi:r2="1.7938653"
     sodipodi:arg1="2.1193457"
     sodipodi:arg2="3.1665433"
     inkscape:rounded="0.16"
     inkscape:randomized="0"
     d="m -9.4554837,9.7858065 c -0.316036,-0.1931332 -0.4399666,-1.9041692 -0.4307264,-2.274431 0.00924,-0.3702617 0.2183637,-2.072986 0.5436399,-2.2501147 0.3252762,-0.1771286 1.8690422,0.5710624 2.1850782,0.7641955 0.316036,0.1931331 1.6860767,1.2256016 1.6768365,1.5958633 -0.00924,0.3702618 -1.4290756,1.3331068 -1.7543518,1.5102355 -0.3252761,0.1771287 -1.9044404,0.8473845 -2.2204764,0.6542514 z"
     inkscape:transform-center-x="-0.44760623"
     inkscape:transform-center-y="-0.031438593"
     transform="matrix(1.0937122,0,0,1.0937122,17.938116,-0.0119049)" /><path
     sodipodi:type="star"
     style="fill:#efea8e;fill-opacity:1;stroke-width:0.3;stroke-linecap:round;stroke-linejoin:round;stroke-miterlimit:3.4;paint-order:stroke fill markers"
     id="path6968-7"
     inkscape:flatsided="false"
     sodipodi:sides="3"
     sodipodi:cx="-8.0929031"
     sodipodi:cy="7.556129"
     sodipodi:r1="2.613061"
     sodipodi:r2="1.7938653"
     sodipodi:arg1="2.1193457"
     sodipodi:arg2="3.1665433"
     inkscape:rounded="0.16"
     inkscape:randomized="0"
     d="m -9.4554837,9.7858065 c -0.316036,-0.1931332 -0.4399666,-1.9041692 -0.4307264,-2.274431 0.00924,-0.3702617 0.2183637,-2.072986 0.5436399,-2.2501147 0.3252762,-0.1771286 1.8690422,0.5710624 2.1850782,0.7641955 0.316036,0.1931331 1.6860767,1.2256016 1.6768365,1.5958633 -0.00924,0.3702618 -1.4290756,1.3331068 -1.7543518,1.5102355 -0.3252761,0.1771287 -1.9044404,0.8473845 -2.2204764,0.6542514 z"
     inkscape:transform-center-x="-0.44760623"
     inkscape:transform-center-y="-0.014098798"
     transform="matrix(1.0937122,0,0,0.49048112,15.546926,4.58667)" /><circle
     style="fill:#efea8e;fill-opacity:1;stroke-width:0.246483;stroke-linecap:round;stroke-linejoin:round;stroke-miterlimit:3.4;paint-order:stroke fill markers"
     id="path7098"
     cx="3.1606808"
     cy="13.485921"
     r="2.3028686" /><circle
     style="fill:#efea8e;fill-opacity:1;stroke-width:0.246483;stroke-linecap:round;stroke-linejoin:round;stroke-miterlimit:3.4;paint-order:stroke fill markers"
     id="path7098-7"
     cx="12.820645"
     cy="13.501935"
     r="2.3028686" /></svg>
